

<svg width="330" height="410" xmlns="http://www.w3.org/2000/svg">
<!-- Define the marker -->
  <defs>
    <g id="marker">
      <rect x="0" y="0" width="0" height="0" rx="10" ry="10" fill="white"/>
    <rect x="0.0" y="0.0" width="0.0" height="0.0" fill="black"/>
    <rect x="0.0" y="0.0" width="0.0" height="0.0" fill="white"/>
    <rect x="0.0" y="0.0" width="0.0" height="0.0" fill="black"/>
  </g>
  </defs>

<!-- Define the default styles -->
  <style>
    * {
      font-family: Verdana;
      text-anchor: middle;
      dominant-baseline: central;
    }
    .borderline {
      fill: none;
      stroke: black;
      stroke-width: 2;
    }
    .gridline {
      stroke: black;
      stroke-width: 1;
    }
    .header, .default {
      font-weight: bold;
    }
    .right-align {
      text-anchor: end;
    }
  </style>

<!-- Fill in vertical shades -->

  
  <!-- If it's the first then make the bottom left rounded, else if the last then make bottom right rounded -->
  
  <!-- Only bottom-left corner rounded -->
  <path d="M 0,40
           h 30
           v 370
           h -20
           a 10,10 0 0 1 -10,-10
           Z" fill="#ffffff"/>
  

  
  <!-- If it's the first then make the bottom left rounded, else if the last then make bottom right rounded -->
  
  <!-- No rounded corners -->
  <rect x="30" y="40" width="30" height="370" fill="#ffffff"/>
  

  
  <!-- If it's the first then make the bottom left rounded, else if the last then make bottom right rounded -->
  
  <!-- No rounded corners -->
  <rect x="60" y="40" width="30" height="370" fill="#ffeefe"/>
  

  
  <!-- If it's the first then make the bottom left rounded, else if the last then make bottom right rounded -->
  
  <!-- No rounded corners -->
  <rect x="90" y="40" width="30" height="370" fill="#ffffff"/>
  

  
  <!-- If it's the first then make the bottom left rounded, else if the last then make bottom right rounded -->
  
  <!-- No rounded corners -->
  <rect x="120" y="40" width="30" height="370" fill="#ffeefe"/>
  

  
  <!-- If it's the first then make the bottom left rounded, else if the last then make bottom right rounded -->
  
  <!-- No rounded corners -->
  <rect x="150" y="40" width="30" height="370" fill="#ffffff"/>
  

  
  <!-- If it's the first then make the bottom left rounded, else if the last then make bottom right rounded -->
  
  <!-- No rounded corners -->
  <rect x="180" y="40" width="30" height="370" fill="#ffeefe"/>
  

  
  <!-- If it's the first then make the bottom left rounded, else if the last then make bottom right rounded -->
  
  <!-- No rounded corners -->
  <rect x="210" y="40" width="30" height="370" fill="#ffffff"/>
  

  
  <!-- If it's the first then make the bottom left rounded, else if the last then make bottom right rounded -->
  
  <!-- No rounded corners -->
  <rect x="240" y="40" width="30" height="370" fill="#ffeefe"/>
  

  
  <!-- If it's the first then make the bottom left rounded, else if the last then make bottom right rounded -->
  
  <!-- No rounded corners -->
  <rect x="270" y="40" width="30" height="370" fill="#ffffff"/>
  

  
  <!-- If it's the first then make the bottom left rounded, else if the last then make bottom right rounded -->
  
  <!-- Only bottom-right corner rounded -->
  <path d="M 300,40
           h 30
           v 360
           a 10,10 0 0 1 -10,10
           h -20
           Z" fill="#ffffff"/>
  


<!-- Draw vertical grid lines -->

  

  
    
    <line x1="60" y1="80" x2="60" y2="410" class="gridline"/>
  

  

  

  

  

  

  

  
    
    <line x1="270" y1="80" x2="270" y2="410" class="gridline"/>
  

  

  


<!-- Draw bubbles -->

  
  
    
    <text x="30.0" y="95.0" font-weight="bold" font-size="18" fill="#000000" class="right-align">S</text>
    
  
    
    <text x="30.0" y="125.0" font-weight="bold" font-size="18" fill="#000000" class="right-align">T</text>
    
  
    
    <text x="30.0" y="155.0" font-weight="bold" font-size="18" fill="#000000" class="right-align">F</text>
    
  
    
    <text x="30.0" y="185.0" font-weight="bold" font-size="18" fill="#000000" class="right-align">G</text>
    
  
    
    <text x="30.0" y="215.0" font-weight="bold" font-size="18" fill="#000000" class="right-align">M</text>
    
  

  
  
    
    <text x="45.0" y="95.0" font-weight="bold" font-size="18" fill="#000000"></text>
    
    <circle cx="45.0" cy="95.0" r="12" stroke="black" fill="none"/>
    
  
    
    <text x="45.0" y="125.0" font-weight="bold" font-size="18" fill="#000000"></text>
    
    <circle cx="45.0" cy="125.0" r="12" stroke="black" fill="none"/>
    
  
    
    <text x="45.0" y="155.0" font-weight="bold" font-size="18" fill="#000000"></text>
    
    <circle cx="45.0" cy="155.0" r="12" stroke="black" fill="none"/>
    
  
    
    <text x="45.0" y="185.0" font-weight="bold" font-size="18" fill="#000000"></text>
    
    <circle cx="45.0" cy="185.0" r="12" stroke="black" fill="none"/>
    
  
    
    <text x="45.0" y="215.0" font-weight="bold" font-size="18" fill="#000000"></text>
    
    <circle cx="45.0" cy="215.0" r="12" stroke="black" fill="none"/>
    
  

  
  
    
    <text x="75.0" y="95.0" font-weight="normal" font-size="15" fill="#c2c3c3">0</text>
    
    <circle cx="75.0" cy="95.0" r="12" stroke="black" fill="none"/>
    
  
    
    <text x="75.0" y="125.0" font-weight="normal" font-size="15" fill="#c2c3c3">1</text>
    
    <circle cx="75.0" cy="125.0" r="12" stroke="black" fill="none"/>
    
  
    
    <text x="75.0" y="155.0" font-weight="normal" font-size="15" fill="#c2c3c3">2</text>
    
    <circle cx="75.0" cy="155.0" r="12" stroke="black" fill="none"/>
    
  
    
    <text x="75.0" y="185.0" font-weight="normal" font-size="15" fill="#c2c3c3">3</text>
    
    <circle cx="75.0" cy="185.0" r="12" stroke="black" fill="none"/>
    
  
    
    <text x="75.0" y="215.0" font-weight="normal" font-size="15" fill="#c2c3c3">4</text>
    
    <circle cx="75.0" cy="215.0" r="12" stroke="black" fill="none"/>
    
  
    
    <text x="75.0" y="245.0" font-weight="normal" font-size="15" fill="#c2c3c3">5</text>
    
    <circle cx="75.0" cy="245.0" r="12" stroke="black" fill="none"/>
    
  
    
    <text x="75.0" y="275.0" font-weight="normal" font-size="15" fill="#c2c3c3">6</text>
    
    <circle cx="75.0" cy="275.0" r="12" stroke="black" fill="none"/>
    
  
    
    <text x="75.0" y="305.0" font-weight="normal" font-size="15" fill="#c2c3c3">7</text>
    
    <circle cx="75.0" cy="305.0" r="12" stroke="black" fill="none"/>
    
  
    
    <text x="75.0" y="335.0" font-weight="normal" font-size="15" fill="#c2c3c3">8</text>
    
    <circle cx="75.0" cy="335.0" r="12" stroke="black" fill="none"/>
    
  
    
    <text x="75.0" y="365.0" font-weight="normal" font-size="15" fill="#c2c3c3">9</text>
    
    <circle cx="75.0" cy="365.0" r="12" stroke="black" fill="none"/>
    
  

  
  
    
    <text x="105.0" y="95.0" font-weight="normal" font-size="15" fill="#c2c3c3">0</text>
    
    <circle cx="105.0" cy="95.0" r="12" stroke="black" fill="none"/>
    
  
    
    <text x="105.0" y="125.0" font-weight="normal" font-size="15" fill="#c2c3c3">1</text>
    
    <circle cx="105.0" cy="125.0" r="12" stroke="black" fill="none"/>
    
  
    
    <text x="105.0" y="155.0" font-weight="normal" font-size="15" fill="#c2c3c3">2</text>
    
    <circle cx="105.0" cy="155.0" r="12" stroke="black" fill="none"/>
    
  
    
    <text x="105.0" y="185.0" font-weight="normal" font-size="15" fill="#c2c3c3">3</text>
    
    <circle cx="105.0" cy="185.0" r="12" stroke="black" fill="none"/>
    
  
    
    <text x="105.0" y="215.0" font-weight="normal" font-size="15" fill="#c2c3c3">4</text>
    
    <circle cx="105.0" cy="215.0" r="12" stroke="black" fill="none"/>
    
  
    
    <text x="105.0" y="245.0" font-weight="normal" font-size="15" fill="#c2c3c3">5</text>
    
    <circle cx="105.0" cy="245.0" r="12" stroke="black" fill="none"/>
    
  
    
    <text x="105.0" y="275.0" font-weight="normal" font-size="15" fill="#c2c3c3">6</text>
    
    <circle cx="105.0" cy="275.0" r="12" stroke="black" fill="none"/>
    
  
    
    <text x="105.0" y="305.0" font-weight="normal" font-size="15" fill="#c2c3c3">7</text>
    
    <circle cx="105.0" cy="305.0" r="12" stroke="black" fill="none"/>
    
  
    
    <text x="105.0" y="335.0" font-weight="normal" font-size="15" fill="#c2c3c3">8</text>
    
    <circle cx="105.0" cy="335.0" r="12" stroke="black" fill="none"/>
    
  
    
    <text x="105.0" y="365.0" font-weight="normal" font-size="15" fill="#c2c3c3">9</text>
    
    <circle cx="105.0" cy="365.0" r="12" stroke="black" fill="none"/>
    
  

  
  
    
    <text x="135.0" y="95.0" font-weight="normal" font-size="15" fill="#c2c3c3">0</text>
    
    <circle cx="135.0" cy="95.0" r="12" stroke="black" fill="none"/>
    
  
    
    <text x="135.0" y="125.0" font-weight="normal" font-size="15" fill="#c2c3c3">1</text>
    
    <circle cx="135.0" cy="125.0" r="12" stroke="black" fill="none"/>
    
  
    
    <text x="135.0" y="155.0" font-weight="normal" font-size="15" fill="#c2c3c3">2</text>
    
    <circle cx="135.0" cy="155.0" r="12" stroke="black" fill="none"/>
    
  
    
    <text x="135.0" y="185.0" font-weight="normal" font-size="15" fill="#c2c3c3">3</text>
    
    <circle cx="135.0" cy="185.0" r="12" stroke="black" fill="none"/>
    
  
    
    <text x="135.0" y="215.0" font-weight="normal" font-size="15" fill="#c2c3c3">4</text>
    
    <circle cx="135.0" cy="215.0" r="12" stroke="black" fill="none"/>
    
  
    
    <text x="135.0" y="245.0" font-weight="normal" font-size="15" fill="#c2c3c3">5</text>
    
    <circle cx="135.0" cy="245.0" r="12" stroke="black" fill="none"/>
    
  
    
    <text x="135.0" y="275.0" font-weight="normal" font-size="15" fill="#c2c3c3">6</text>
    
    <circle cx="135.0" cy="275.0" r="12" stroke="black" fill="none"/>
    
  
    
    <text x="135.0" y="305.0" font-weight="normal" font-size="15" fill="#c2c3c3">7</text>
    
    <circle cx="135.0" cy="305.0" r="12" stroke="black" fill="none"/>
    
  
    
    <text x="135.0" y="335.0" font-weight="normal" font-size="15" fill="#c2c3c3">8</text>
    
    <circle cx="135.0" cy="335.0" r="12" stroke="black" fill="none"/>
    
  
    
    <text x="135.0" y="365.0" font-weight="normal" font-size="15" fill="#c2c3c3">9</text>
    
    <circle cx="135.0" cy="365.0" r="12" stroke="black" fill="none"/>
    
  

  
  
    
    <text x="165.0" y="95.0" font-weight="normal" font-size="15" fill="#c2c3c3">0</text>
    
    <circle cx="165.0" cy="95.0" r="12" stroke="black" fill="none"/>
    
  
    
    <text x="165.0" y="125.0" font-weight="normal" font-size="15" fill="#c2c3c3">1</text>
    
    <circle cx="165.0" cy="125.0" r="12" stroke="black" fill="none"/>
    
  
    
    <text x="165.0" y="155.0" font-weight="normal" font-size="15" fill="#c2c3c3">2</text>
    
    <circle cx="165.0" cy="155.0" r="12" stroke="black" fill="none"/>
    
  
    
    <text x="165.0" y="185.0" font-weight="normal" font-size="15" fill="#c2c3c3">3</text>
    
    <circle cx="165.0" cy="185.0" r="12" stroke="black" fill="none"/>
    
  
    
    <text x="165.0" y="215.0" font-weight="normal" font-size="15" fill="#c2c3c3">4</text>
    
    <circle cx="165.0" cy="215.0" r="12" stroke="black" fill="none"/>
    
  
    
    <text x="165.0" y="245.0" font-weight="normal" font-size="15" fill="#c2c3c3">5</text>
    
    <circle cx="165.0" cy="245.0" r="12" stroke="black" fill="none"/>
    
  
    
    <text x="165.0" y="275.0" font-weight="normal" font-size="15" fill="#c2c3c3">6</text>
    
    <circle cx="165.0" cy="275.0" r="12" stroke="black" fill="none"/>
    
  
    
    <text x="165.0" y="305.0" font-weight="normal" font-size="15" fill="#c2c3c3">7</text>
    
    <circle cx="165.0" cy="305.0" r="12" stroke="black" fill="none"/>
    
  
    
    <text x="165.0" y="335.0" font-weight="normal" font-size="15" fill="#c2c3c3">8</text>
    
    <circle cx="165.0" cy="335.0" r="12" stroke="black" fill="none"/>
    
  
    
    <text x="165.0" y="365.0" font-weight="normal" font-size="15" fill="#c2c3c3">9</text>
    
    <circle cx="165.0" cy="365.0" r="12" stroke="black" fill="none"/>
    
  

  
  
    
    <text x="195.0" y="95.0" font-weight="normal" font-size="15" fill="#c2c3c3">0</text>
    
    <circle cx="195.0" cy="95.0" r="12" stroke="black" fill="none"/>
    
  
    
    <text x="195.0" y="125.0" font-weight="normal" font-size="15" fill="#c2c3c3">1</text>
    
    <circle cx="195.0" cy="125.0" r="12" stroke="black" fill="none"/>
    
  
    
    <text x="195.0" y="155.0" font-weight="normal" font-size="15" fill="#c2c3c3">2</text>
    
    <circle cx="195.0" cy="155.0" r="12" stroke="black" fill="none"/>
    
  
    
    <text x="195.0" y="185.0" font-weight="normal" font-size="15" fill="#c2c3c3">3</text>
    
    <circle cx="195.0" cy="185.0" r="12" stroke="black" fill="none"/>
    
  
    
    <text x="195.0" y="215.0" font-weight="normal" font-size="15" fill="#c2c3c3">4</text>
    
    <circle cx="195.0" cy="215.0" r="12" stroke="black" fill="none"/>
    
  
    
    <text x="195.0" y="245.0" font-weight="normal" font-size="15" fill="#c2c3c3">5</text>
    
    <circle cx="195.0" cy="245.0" r="12" stroke="black" fill="none"/>
    
  
    
    <text x="195.0" y="275.0" font-weight="normal" font-size="15" fill="#c2c3c3">6</text>
    
    <circle cx="195.0" cy="275.0" r="12" stroke="black" fill="none"/>
    
  
    
    <text x="195.0" y="305.0" font-weight="normal" font-size="15" fill="#c2c3c3">7</text>
    
    <circle cx="195.0" cy="305.0" r="12" stroke="black" fill="none"/>
    
  
    
    <text x="195.0" y="335.0" font-weight="normal" font-size="15" fill="#c2c3c3">8</text>
    
    <circle cx="195.0" cy="335.0" r="12" stroke="black" fill="none"/>
    
  
    
    <text x="195.0" y="365.0" font-weight="normal" font-size="15" fill="#c2c3c3">9</text>
    
    <circle cx="195.0" cy="365.0" r="12" stroke="black" fill="none"/>
    
  

  
  
    
    <text x="225.0" y="95.0" font-weight="normal" font-size="15" fill="#c2c3c3">0</text>
    
    <circle cx="225.0" cy="95.0" r="12" stroke="black" fill="none"/>
    
  
    
    <text x="225.0" y="125.0" font-weight="normal" font-size="15" fill="#c2c3c3">1</text>
    
    <circle cx="225.0" cy="125.0" r="12" stroke="black" fill="none"/>
    
  
    
    <text x="225.0" y="155.0" font-weight="normal" font-size="15" fill="#c2c3c3">2</text>
    
    <circle cx="225.0" cy="155.0" r="12" stroke="black" fill="none"/>
    
  
    
    <text x="225.0" y="185.0" font-weight="normal" font-size="15" fill="#c2c3c3">3</text>
    
    <circle cx="225.0" cy="185.0" r="12" stroke="black" fill="none"/>
    
  
    
    <text x="225.0" y="215.0" font-weight="normal" font-size="15" fill="#c2c3c3">4</text>
    
    <circle cx="225.0" cy="215.0" r="12" stroke="black" fill="none"/>
    
  
    
    <text x="225.0" y="245.0" font-weight="normal" font-size="15" fill="#c2c3c3">5</text>
    
    <circle cx="225.0" cy="245.0" r="12" stroke="black" fill="none"/>
    
  
    
    <text x="225.0" y="275.0" font-weight="normal" font-size="15" fill="#c2c3c3">6</text>
    
    <circle cx="225.0" cy="275.0" r="12" stroke="black" fill="none"/>
    
  
    
    <text x="225.0" y="305.0" font-weight="normal" font-size="15" fill="#c2c3c3">7</text>
    
    <circle cx="225.0" cy="305.0" r="12" stroke="black" fill="none"/>
    
  
    
    <text x="225.0" y="335.0" font-weight="normal" font-size="15" fill="#c2c3c3">8</text>
    
    <circle cx="225.0" cy="335.0" r="12" stroke="black" fill="none"/>
    
  
    
    <text x="225.0" y="365.0" font-weight="normal" font-size="15" fill="#c2c3c3">9</text>
    
    <circle cx="225.0" cy="365.0" r="12" stroke="black" fill="none"/>
    
  

  
  
    
    <text x="255.0" y="95.0" font-weight="normal" font-size="15" fill="#c2c3c3">0</text>
    
    <circle cx="255.0" cy="95.0" r="12" stroke="black" fill="none"/>
    
  
    
    <text x="255.0" y="125.0" font-weight="normal" font-size="15" fill="#c2c3c3">1</text>
    
    <circle cx="255.0" cy="125.0" r="12" stroke="black" fill="none"/>
    
  
    
    <text x="255.0" y="155.0" font-weight="normal" font-size="15" fill="#c2c3c3">2</text>
    
    <circle cx="255.0" cy="155.0" r="12" stroke="black" fill="none"/>
    
  
    
    <text x="255.0" y="185.0" font-weight="normal" font-size="15" fill="#c2c3c3">3</text>
    
    <circle cx="255.0" cy="185.0" r="12" stroke="black" fill="none"/>
    
  
    
    <text x="255.0" y="215.0" font-weight="normal" font-size="15" fill="#c2c3c3">4</text>
    
    <circle cx="255.0" cy="215.0" r="12" stroke="black" fill="none"/>
    
  
    
    <text x="255.0" y="245.0" font-weight="normal" font-size="15" fill="#c2c3c3">5</text>
    
    <circle cx="255.0" cy="245.0" r="12" stroke="black" fill="none"/>
    
  
    
    <text x="255.0" y="275.0" font-weight="normal" font-size="15" fill="#c2c3c3">6</text>
    
    <circle cx="255.0" cy="275.0" r="12" stroke="black" fill="none"/>
    
  
    
    <text x="255.0" y="305.0" font-weight="normal" font-size="15" fill="#c2c3c3">7</text>
    
    <circle cx="255.0" cy="305.0" r="12" stroke="black" fill="none"/>
    
  
    
    <text x="255.0" y="335.0" font-weight="normal" font-size="15" fill="#c2c3c3">8</text>
    
    <circle cx="255.0" cy="335.0" r="12" stroke="black" fill="none"/>
    
  
    
    <text x="255.0" y="365.0" font-weight="normal" font-size="15" fill="#c2c3c3">9</text>
    
    <circle cx="255.0" cy="365.0" r="12" stroke="black" fill="none"/>
    
  

  
  
    
    <text x="285.0" y="95.0" font-weight="normal" font-size="15" fill="#c2c3c3">A</text>
    
    <circle cx="285.0" cy="95.0" r="12" stroke="black" fill="none"/>
    
  
    
    <text x="285.0" y="125.0" font-weight="normal" font-size="15" fill="#c2c3c3">B</text>
    
    <circle cx="285.0" cy="125.0" r="12" stroke="black" fill="none"/>
    
  
    
    <text x="285.0" y="155.0" font-weight="normal" font-size="15" fill="#c2c3c3">C</text>
    
    <circle cx="285.0" cy="155.0" r="12" stroke="black" fill="none"/>
    
  
    
    <text x="285.0" y="185.0" font-weight="normal" font-size="15" fill="#c2c3c3">D</text>
    
    <circle cx="285.0" cy="185.0" r="12" stroke="black" fill="none"/>
    
  
    
    <text x="285.0" y="215.0" font-weight="normal" font-size="15" fill="#c2c3c3">E</text>
    
    <circle cx="285.0" cy="215.0" r="12" stroke="black" fill="none"/>
    
  
    
    <text x="285.0" y="245.0" font-weight="normal" font-size="15" fill="#c2c3c3">F</text>
    
    <circle cx="285.0" cy="245.0" r="12" stroke="black" fill="none"/>
    
  
    
    <text x="285.0" y="275.0" font-weight="normal" font-size="15" fill="#c2c3c3">G</text>
    
    <circle cx="285.0" cy="275.0" r="12" stroke="black" fill="none"/>
    
  
    
    <text x="285.0" y="305.0" font-weight="normal" font-size="15" fill="#c2c3c3">H</text>
    
    <circle cx="285.0" cy="305.0" r="12" stroke="black" fill="none"/>
    
  
    
    <text x="285.0" y="335.0" font-weight="normal" font-size="15" fill="#c2c3c3">I</text>
    
    <circle cx="285.0" cy="335.0" r="12" stroke="black" fill="none"/>
    
  
    
    <text x="285.0" y="365.0" font-weight="normal" font-size="15" fill="#c2c3c3">J</text>
    
    <circle cx="285.0" cy="365.0" r="12" stroke="black" fill="none"/>
    
  
    
    <text x="285.0" y="395.0" font-weight="normal" font-size="15" fill="#c2c3c3">K</text>
    
    <circle cx="285.0" cy="395.0" r="12" stroke="black" fill="none"/>
    
  

  
  
    
    <text x="315.0" y="95.0" font-weight="normal" font-size="15" fill="#c2c3c3">L</text>
    
    <circle cx="315.0" cy="95.0" r="12" stroke="black" fill="none"/>
    
  
    
    <text x="315.0" y="125.0" font-weight="normal" font-size="15" fill="#c2c3c3">M</text>
    
    <circle cx="315.0" cy="125.0" r="12" stroke="black" fill="none"/>
    
  
    
    <text x="315.0" y="155.0" font-weight="normal" font-size="15" fill="#c2c3c3">N</text>
    
    <circle cx="315.0" cy="155.0" r="12" stroke="black" fill="none"/>
    
  
    
    <text x="315.0" y="185.0" font-weight="normal" font-size="15" fill="#c2c3c3">P</text>
    
    <circle cx="315.0" cy="185.0" r="12" stroke="black" fill="none"/>
    
  
    
    <text x="315.0" y="215.0" font-weight="normal" font-size="15" fill="#c2c3c3">Q</text>
    
    <circle cx="315.0" cy="215.0" r="12" stroke="black" fill="none"/>
    
  
    
    <text x="315.0" y="245.0" font-weight="normal" font-size="15" fill="#c2c3c3">R</text>
    
    <circle cx="315.0" cy="245.0" r="12" stroke="black" fill="none"/>
    
  
    
    <text x="315.0" y="275.0" font-weight="normal" font-size="15" fill="#c2c3c3">T</text>
    
    <circle cx="315.0" cy="275.0" r="12" stroke="black" fill="none"/>
    
  
    
    <text x="315.0" y="305.0" font-weight="normal" font-size="15" fill="#c2c3c3">U</text>
    
    <circle cx="315.0" cy="305.0" r="12" stroke="black" fill="none"/>
    
  
    
    <text x="315.0" y="335.0" font-weight="normal" font-size="15" fill="#c2c3c3">W</text>
    
    <circle cx="315.0" cy="335.0" r="12" stroke="black" fill="none"/>
    
  
    
    <text x="315.0" y="365.0" font-weight="normal" font-size="15" fill="#c2c3c3">X</text>
    
    <circle cx="315.0" cy="365.0" r="12" stroke="black" fill="none"/>
    
  
    
    <text x="315.0" y="395.0" font-weight="normal" font-size="15" fill="#c2c3c3">Z</text>
    
    <circle cx="315.0" cy="395.0" r="12" stroke="black" fill="none"/>
    
  


<!-- Draw the header background, rounded on top-left and top-right by 10 -->
  <path d="M 10,0
           H 320
           A 10,10 0 0 1 330,10
           V 40
           H 0
           V 10
           A 10,10 0 0 1 10,0
           Z" fill="#ffccdc"/>

<!-- Write the header text -->
  <text x="165.0" y="20.0" font-size="20" fill="#000000" class="header">NRIC/FIN</text>

<!-- Draw horizontal grid lines -->
  <line x1="0" x2="330" y1="40" y2="40" class="gridline"/>
  <line x1="0" x2="330" y1="80" y2="80" class="gridline"/>

<!-- Draw the outer box -->
  <rect x="0" y="0" width="330" height="410" rx="10" ry="10" class="borderline"/>

<!-- Write the default values in text area -->


  <!-- Draw marker bottom-right -->
  <use href="#marker" x="330" y="410"/>

  <!-- Draw marker top-right -->
  <use href="#marker" x="0" y="410"/>

  <!-- Draw marker bottom-left -->
  <use href="#marker" x="330" y="0"/>
</svg>